<mxfile host="app.diagrams.net" modified="2021-05-07T00:54:34.113Z" agent="5.0 (Macintosh; Intel Mac OS X 10_15_7) AppleWebKit/537.36 (KHTML, like Gecko) Chrome/90.0.4430.93 Safari/537.36" etag="Z8iu3I-SMa9Puz6GwyYO" version="14.6.10" type="github">
  <diagram id="PP-XzVZMelyfsmEZlIUg" name="Page-1">
    <mxGraphModel dx="946" dy="589" grid="1" gridSize="10" guides="1" tooltips="1" connect="1" arrows="1" fold="1" page="1" pageScale="1" pageWidth="850" pageHeight="1100" math="0" shadow="0">
      <root>
        <mxCell id="0" />
        <mxCell id="1" parent="0" />
        <mxCell id="Mz1-fLmXmMdzjkVe8vYz-1" value="Root" style="rounded=0;whiteSpace=wrap;html=1;" vertex="1" parent="1">
          <mxGeometry x="130" y="60" width="600" height="60" as="geometry" />
        </mxCell>
        <mxCell id="Mz1-fLmXmMdzjkVe8vYz-9" value="Header" style="rounded=0;whiteSpace=wrap;html=1;fillColor=#d5e8d4;strokeColor=#82b366;" vertex="1" parent="1">
          <mxGeometry x="130" y="240" width="600" height="60" as="geometry" />
        </mxCell>
        <mxCell id="Mz1-fLmXmMdzjkVe8vYz-14" value="Movie Details" style="rounded=0;whiteSpace=wrap;html=1;fillColor=#dae8fc;strokeColor=#6c8ebf;" vertex="1" parent="1">
          <mxGeometry x="550" y="390" width="120" height="60" as="geometry" />
        </mxCell>
        <mxCell id="Mz1-fLmXmMdzjkVe8vYz-16" value="movie" style="rounded=0;whiteSpace=wrap;html=1;fillColor=#dae8fc;strokeColor=#6c8ebf;" vertex="1" parent="1">
          <mxGeometry x="180" y="390" width="120" height="60" as="geometry" />
        </mxCell>
        <mxCell id="Mz1-fLmXmMdzjkVe8vYz-17" value="Movie details&lt;br&gt;genre&amp;nbsp;&lt;br&gt;actors/directors&lt;br&gt;rating&lt;br&gt;release date&lt;br&gt;reviews" style="rounded=0;whiteSpace=wrap;html=1;fillColor=#d5e8d4;strokeColor=#82b366;" vertex="1" parent="1">
          <mxGeometry x="550" y="470" width="120" height="90" as="geometry" />
        </mxCell>
        <mxCell id="Mz1-fLmXmMdzjkVe8vYz-18" value="Add&lt;br&gt;Get&lt;br&gt;Delete" style="rounded=0;whiteSpace=wrap;html=1;fillColor=#d5e8d4;strokeColor=#82b366;" vertex="1" parent="1">
          <mxGeometry x="180" y="480" width="120" height="60" as="geometry" />
        </mxCell>
        <mxCell id="Mz1-fLmXmMdzjkVe8vYz-19" value="movie" style="rounded=0;whiteSpace=wrap;html=1;fillColor=#ffe6cc;strokeColor=#d79b00;" vertex="1" parent="1">
          <mxGeometry x="180" y="560" width="120" height="60" as="geometry" />
        </mxCell>
        <mxCell id="Mz1-fLmXmMdzjkVe8vYz-20" value="Details" style="rounded=0;whiteSpace=wrap;html=1;fillColor=#ffe6cc;strokeColor=#d79b00;" vertex="1" parent="1">
          <mxGeometry x="550" y="570" width="120" height="60" as="geometry" />
        </mxCell>
        <mxCell id="Mz1-fLmXmMdzjkVe8vYz-21" value="model" style="rounded=0;whiteSpace=wrap;html=1;fillColor=#ffe6cc;strokeColor=#d79b00;" vertex="1" parent="1">
          <mxGeometry x="270" y="720" width="120" height="40" as="geometry" />
        </mxCell>
        <mxCell id="Mz1-fLmXmMdzjkVe8vYz-22" value="Components" style="rounded=0;whiteSpace=wrap;html=1;fillColor=#d5e8d4;strokeColor=#82b366;" vertex="1" parent="1">
          <mxGeometry x="410" y="720" width="120" height="40" as="geometry" />
        </mxCell>
        <mxCell id="Mz1-fLmXmMdzjkVe8vYz-23" value="Feature" style="rounded=0;whiteSpace=wrap;html=1;fillColor=#dae8fc;strokeColor=#6c8ebf;" vertex="1" parent="1">
          <mxGeometry x="550" y="720" width="120" height="40" as="geometry" />
        </mxCell>
      </root>
    </mxGraphModel>
  </diagram>
</mxfile>
